<svg width="80" height="80" viewBox="0 0 80 80" fill="none" xmlns="http://www.w3.org/2000/svg">
<rect width="80" height="80" fill="#ECECEC"/>
<path d="M58 32V52.5714C58 54.4643 56.4883 56 54.625 56H25.375C23.5117 56 22 54.4643 22 52.5714V32C22 30.1071 23.5117 28.5714 25.375 28.5714H31.5625L32.4273 26.2214C32.9195 24.8857 34.1781 24 35.5844 24H44.4086C45.8148 24 47.0734 24.8857 47.5656 26.2214L48.4375 28.5714H54.625C56.4883 28.5714 58 30.1071 58 32ZM48.4375 42.2857C48.4375 37.5571 44.6547 33.7143 40 33.7143C35.3453 33.7143 31.5625 37.5571 31.5625 42.2857C31.5625 47.0143 35.3453 50.8571 40 50.8571C44.6547 50.8571 48.4375 47.0143 48.4375 42.2857ZM46.1875 42.2857C46.1875 45.75 43.4102 48.5714 40 48.5714C36.5898 48.5714 33.8125 45.75 33.8125 42.2857C33.8125 38.8214 36.5898 36 40 36C43.4102 36 46.1875 38.8214 46.1875 42.2857Z" fill="#CCCCCC"/>
</svg>
