<svg width="22" height="22" viewBox="0 0 22 22" fill="none" xmlns="http://www.w3.org/2000/svg">
<path fill-rule="evenodd" clip-rule="evenodd" d="M19.426 5.76C19.37 5.381 19.048 5.116 18.67 5.116H14.317V3.335C14.317 1.497 12.822 0 10.987 0C9.151 0 7.656 1.497 7.656 3.335V5.116H3.304C2.926 5.116 2.604 5.381 2.547 5.76L0.012 21.109C-0.026 21.337 0.031 21.564 0.182 21.735C0.333 21.905 0.541 22 0.769 22H21.205C21.205 22 21.205 22 21.224 22C21.659 22 22 21.659 22 21.223C22 21.128 21.981 21.053 21.962 20.977L19.426 5.76ZM9.208 3.335C9.208 2.35 10.003 1.554 10.987 1.554C11.971 1.554 12.766 2.35 12.766 3.335V5.116H9.208V3.335ZM1.677 20.465L3.967 6.67H7.656V11.009C7.656 11.445 7.997 11.786 8.432 11.786C8.868 11.786 9.208 11.445 9.208 11.009V6.67H12.766V11.009C12.766 11.445 13.106 11.786 13.542 11.786C13.977 11.786 14.317 11.445 14.317 11.009V6.67H18.007L20.297 20.465H1.677Z" fill="white"/>
</svg>
