<svg width="62" height="70" viewBox="0 0 62 70" fill="none" xmlns="http://www.w3.org/2000/svg">
<path d="M9 4C9 1.79086 10.7909 0 13 0H44L62 18V66C62 68.2091 60.2091 70 58 70H13C10.7909 70 9 68.2091 9 66V4Z" fill="#E2E5E7"/>
<rect y="33" width="53" height="26" rx="2" fill="#50BEE8"/>
<path d="M44 13V0L62 18H49C46 18 44 16 44 13Z" fill="#B0B7BD"/>
<path d="M62 18V30L50 18H62Z" fill="#CAD1D8"/>
<path fill-rule="evenodd" clip-rule="evenodd" d="M16.5 40.5C17.0523 40.5 17.5 40.9477 17.5 41.5V49.5C17.5 49.6075 17.4827 49.7143 17.4487 49.8162C16.7386 51.9464 14.6377 52.5 13 52.5C12.1272 52.5 11.444 52.3519 10.8164 51.9933C10.2608 51.6758 9.80132 51.216 9.3464 50.7607C9.32856 50.7428 9.31072 50.725 9.29289 50.7071C8.90237 50.3166 8.90237 49.6834 9.29289 49.2929C9.68342 48.9024 10.3166 48.9024 10.7071 49.2929C11.2346 49.8204 11.511 50.0867 11.8086 50.2568C12.056 50.3981 12.3728 50.5 13 50.5C14.29 50.5 15.1646 50.0998 15.5 49.3188V41.5C15.5 40.9477 15.9477 40.5 16.5 40.5ZM21 41.5C21 40.9477 21.4477 40.5 22 40.5H22.025C23.6293 40.5 24.9294 40.5 25.9605 40.548C26.9809 40.5954 27.8412 40.6923 28.5203 40.932C29.2557 41.1916 29.8206 41.6347 30.1497 42.3455C30.4428 42.9787 30.5 43.7306 30.5 44.5C30.5 45.2793 30.4398 46.0382 30.1653 46.6971C29.8669 47.4133 29.3505 47.9329 28.6133 48.2798C27.9233 48.6045 27.0504 48.7736 26.0067 48.8707C25.1752 48.9481 24.1807 48.9838 23 48.9954V51.5C23 52.0523 22.5523 52.5 22 52.5C21.4477 52.5 21 52.0523 21 51.5V41.5ZM23 46.9953C24.1445 46.9837 25.07 46.9492 25.8214 46.8793C26.7933 46.7889 27.3892 46.6455 27.7617 46.4702C28.087 46.3171 28.2269 46.1493 28.3191 45.9279C28.4352 45.6494 28.5 45.2208 28.5 44.5C28.5 43.7695 28.4322 43.3964 28.3347 43.1858C28.2732 43.0528 28.1818 42.9335 27.8547 42.818C27.4713 42.6827 26.8629 42.5921 25.8676 42.5458C25.0984 42.51 24.1595 42.5022 23 42.5005V46.9953Z" fill="white"/>
<path d="M39.5 40.5C37.6306 40.5 35.9763 40.8973 34.7826 41.9318C33.5611 42.9904 33 44.5584 33 46.5C33 48.4417 33.5611 50.0096 34.7826 51.0682C35.9763 52.1027 37.5 52.5 38.5 52.5H40.5C43 52.5 44 51 44 49C44 46 42.5 45.5 41.5 45.5H39.5C39 45.5 38.5 45.9477 38.5 46.5C38.5 47.0523 38.9477 47.5 39.5 47.5H40.5C41.4769 47.5 42 48 42 49C42 50 41.5 50.5 40.5 50.5H39.5C37.8694 50.5 36.7737 50.1473 36.0924 49.5568C35.4389 48.9904 35 48.0584 35 46.5C35 44.9417 35.4389 44.0096 36.0924 43.4432C36.7737 42.8527 37.8694 42.5 39.5 42.5C41.3459 42.5 42.0466 42.9608 42.2929 43.2071C42.6834 43.5977 43.3166 43.5977 43.7071 43.2071C44.0976 42.8166 44.0976 42.1834 43.7071 41.7929C42.9534 41.0392 41.6541 40.5 39.5 40.5Z" fill="white"/>
</svg>
