<svg width="84" height="17" viewBox="0 0 84 17" fill="none" xmlns="http://www.w3.org/2000/svg">
<path d="M10.252 11.424H3.916L2.156 16H0.44L6.292 1.326H7.876L13.706 16H12.012L10.252 11.424ZM9.658 9.906L7.084 3.196L4.51 9.906H9.658ZM27.4467 4.824C28.9867 4.824 30.0941 5.16133 30.7687 5.836C31.4581 6.51067 31.8027 7.51533 31.8027 8.85V16H30.2187V8.85C30.2187 7.11933 29.2361 6.254 27.2707 6.254C26.3321 6.254 25.4447 6.50333 24.6087 7.002C24.7994 7.51533 24.8947 8.13133 24.8947 8.85V16H23.3107V8.85C23.3107 7.11933 22.3281 6.254 20.3627 6.254C19.4534 6.254 18.4927 6.40067 17.4807 6.694V16H15.8967V5.902C17.3194 5.18333 18.8667 4.824 20.5387 4.824C21.9614 4.824 23.0321 5.12467 23.7507 5.726C24.8507 5.12467 26.0827 4.824 27.4467 4.824ZM44.3166 0.379999V14.108C44.3166 14.856 43.8399 15.4133 42.8866 15.78C41.9479 16.1467 40.9213 16.33 39.8066 16.33C38.4573 16.33 37.2839 15.8973 36.2866 15.032C35.2893 14.152 34.7833 12.5973 34.7686 10.368C34.7686 8.63733 35.1866 7.288 36.0226 6.32C36.8733 5.33733 38.1273 4.846 39.7846 4.846C40.1659 4.846 40.6353 4.912 41.1926 5.044C41.7646 5.16133 42.2779 5.308 42.7326 5.484V0.379999H44.3166ZM42.7326 7.068C42.2926 6.81867 41.8086 6.628 41.2806 6.496C40.7673 6.364 40.2686 6.298 39.7846 6.298C38.6406 6.298 37.7973 6.66467 37.2546 7.398C36.7119 8.11667 36.4406 9.10667 36.4406 10.368C36.4406 11.7467 36.6899 12.8467 37.1886 13.668C37.6873 14.4747 38.5893 14.878 39.8946 14.878C40.6719 14.878 41.3393 14.79 41.8966 14.614C42.4539 14.438 42.7326 14.218 42.7326 13.954V7.068ZM52.112 4.824C53.784 4.824 55.0087 5.36667 55.786 6.452C56.5633 7.53733 56.9373 8.982 56.908 10.786H48.9C48.9 12.106 49.208 13.118 49.824 13.822C50.44 14.526 51.32 14.878 52.464 14.878C53.9307 14.878 55.1847 14.5627 56.226 13.932V15.56C55.1553 16.0733 53.872 16.33 52.376 16.33C50.7773 16.33 49.5307 15.8387 48.636 14.856C47.7413 13.8587 47.294 12.4067 47.294 10.5C47.294 8.63733 47.712 7.22933 48.548 6.276C49.3987 5.308 50.5867 4.824 52.112 4.824ZM52.112 6.276C51.144 6.276 50.4107 6.50333 49.912 6.958C49.4133 7.398 49.098 8.19 48.966 9.334H55.236C55.1627 8.30733 54.8693 7.54467 54.356 7.046C53.8573 6.53267 53.1093 6.276 52.112 6.276ZM62.9772 16.33C62.2292 16.33 61.5912 16.2567 61.0632 16.11C60.5352 15.9633 59.9559 15.7287 59.3252 15.406V13.734C60.0732 14.1593 60.6819 14.46 61.1512 14.636C61.6352 14.7973 62.2072 14.878 62.8672 14.878C63.6006 14.878 64.1946 14.7167 64.6492 14.394C65.1186 14.0713 65.3532 13.6533 65.3532 13.14C65.3532 12.6853 65.2139 12.348 64.9352 12.128C64.6566 11.8933 64.2166 11.6587 63.6152 11.424L63.0432 11.182C62.2072 10.9473 61.5546 10.7347 61.0852 10.544C60.6306 10.3533 60.2272 10.0527 59.8752 9.642C59.5379 9.23133 59.3692 8.674 59.3692 7.97C59.3692 7.266 59.5526 6.67933 59.9192 6.21C60.2859 5.74067 60.7626 5.396 61.3492 5.176C61.9359 4.94133 62.5519 4.824 63.1972 4.824C63.7839 4.824 64.2752 4.89 64.6712 5.022C65.0819 5.154 65.6392 5.374 66.3432 5.682V7.266C65.6099 6.89933 65.0452 6.64267 64.6492 6.496C64.2679 6.34933 63.8132 6.276 63.2852 6.276C62.6399 6.276 62.0899 6.408 61.6352 6.672C61.1806 6.92133 60.9532 7.28067 60.9532 7.75C60.9532 8.13133 61.0632 8.44667 61.2832 8.696C61.5179 8.93067 61.8039 9.12133 62.1412 9.268C62.4932 9.4 62.9626 9.54667 63.5492 9.708C64.2826 9.94267 64.8619 10.1553 65.2872 10.346C65.7272 10.5367 66.1086 10.8447 66.4312 11.27C66.7686 11.6807 66.9372 12.238 66.9372 12.942C66.9372 13.69 66.7466 14.3207 66.3652 14.834C65.9839 15.3327 65.4852 15.7067 64.8692 15.956C64.2679 16.2053 63.6372 16.33 62.9772 16.33ZM76.6184 16L71.4924 10.808V16H69.9084V0.842H71.4924V9.092L75.9584 5.022H77.9384L72.5484 9.774L78.7304 16H76.6184ZM81.1448 13.8H83.3448V16H81.1448V13.8Z" fill="white"/>
</svg>
